<svg width="207" height="123" viewBox="0 0 207 123" fill="none" xmlns="http://www.w3.org/2000/svg">
<g clip-path="url(#clip0_55_364)">
<path d="M27.1658 64.2475C27.4615 63.2252 27.7652 62.2108 28.0609 61.1885C28.4525 59.8467 30.035 59.0081 31.3937 59.3595C32.7524 59.7189 33.7034 61.1486 33.5836 62.5463C33.4637 63.944 32.3368 65.166 30.9781 65.4935C29.6194 65.821 28.1009 65.2539 27.1658 64.2475Z" fill="black"/>
<path d="M7.43282 68.2011C7.17707 68.2011 7.08116 68.5765 7.05718 68.8321C6.96927 68.9519 6.92131 69.1436 6.90533 69.2634C6.89734 69.3193 6.88135 69.3672 6.87336 69.4231C6.86537 69.4391 6.85738 69.4551 6.84938 69.463C6.80143 69.4311 6.75348 69.4151 6.70552 69.4231C6.61761 69.0317 6.4178 68.7043 6.13008 69.1436C6.07413 69.2234 6.02618 69.3033 5.97023 69.3912C5.94626 69.4231 5.92228 69.4551 5.89031 69.495C5.57062 70.0062 5.24294 70.5253 4.92324 71.0365C4.74741 71.316 4.84332 72.0349 5.06711 72.2505C5.05911 72.2745 5.05112 72.2984 5.04313 72.3304C4.9712 72.5221 4.99518 73.4406 5.32286 73.4566C5.39479 73.7281 5.55463 73.8799 5.7944 73.6642C7.16108 72.4981 7.84043 70.741 7.81645 68.9599C7.81645 68.7442 7.75251 68.2011 7.43282 68.2011Z" fill="black"/>
<path d="M54.2915 38.5613C54.0038 38.2897 53.82 38.0661 53.4284 37.9703C53.1167 37.8904 52.813 37.8345 52.4933 37.8025C51.8859 37.7466 51.2785 37.7227 50.671 37.7307C49.4163 37.7466 48.1695 37.8345 46.9307 37.9942C44.4531 38.3137 42.0474 39.0086 39.6976 39.8472C39.4419 39.9351 39.2661 40.3983 39.2021 40.614C39.0822 41.0133 39.0583 41.4845 39.1142 41.8999C39.1861 42.435 39.4579 43.2816 40.1372 43.066C42.3671 42.3631 44.7008 41.9957 47.0266 41.7801C48.1695 41.6762 49.3203 41.6283 50.4712 41.6443C51.0786 41.6523 51.6861 41.6682 52.2935 41.6842C52.5652 41.6922 52.829 41.7002 53.1007 41.6762C53.5483 41.6523 53.7481 41.5564 54.1077 41.3008C54.7951 40.8216 54.9229 39.1523 54.2915 38.5613Z" fill="black"/>
<path d="M72.5459 13.7616L60.038 40.0229L57.3046 40.2545C57.3046 40.2545 68.8295 16.6928 68.6776 16.5331C68.6617 16.5251 63.8103 15.2312 63.8103 15.2312C63.8103 15.2312 57.1927 35.8617 55.4904 40.7897C55.1707 40.4862 38.267 42.3471 34.175 43.6251C32.9362 44.0084 21.8349 47.1952 16.9756 49.8949C11.1972 53.1056 14.3222 54.2398 14.3541 54.2238C14.458 54.1599 24.2885 50.4939 37.3159 50.4939C37.5717 50.4939 68.9893 50.9571 74.568 48.4891C75.8467 47.9221 77.4132 44.7113 77.7649 43.8008C79.651 38.9527 76.3183 34.9911 76.3183 34.9911L83.6152 19.041" fill="#2DCC8A"/>
<path d="M69.5328 3.01908C67.7346 1.9009 58.7912 10.5029 57.6963 11.2617C56.7771 11.9006 35.8134 26.5169 30.8822 28.0264C30.7623 28.0664 19.7569 40.1427 19.7409 40.1747C17.8228 43.8806 8.45583 55.2941 16.528 49.0802C26.902 41.0852 54.9709 36.277 54.9709 36.277C54.9709 36.277 62.124 12.9549 62.2598 12.6115C62.2758 12.5955 69.5408 14.3846 69.5648 14.3846C69.6367 14.4645 71.2432 4.08136 69.5328 3.01908Z" fill="#2DCC8A"/>
<path d="M30.2827 51.1169L52.6931 50.3022C53.6921 50.2463 54.6912 50.2064 55.6902 50.1904L68.9893 49.7112C68.9893 49.7112 73.6808 49.4556 76.3262 46.6841C77.0775 45.8934 78.3243 43.7209 78.5561 40.6379C78.684 38.9047 78.5241 36.6764 78.5241 36.6764C78.5241 36.6764 78.3723 34.9911 78.1405 34.9112C77.9647 34.8473 75.2952 37.6667 74.2882 38.4734C71.7067 40.5341 57.1847 41.6842 57.1847 41.6842C57.1847 41.6842 45.9396 41.5884 33.7114 43.4813C29.7313 44.0963 23.849 45.9732 21.707 47.1234C14.3621 51.053 0.487529 57.8899 21.9308 52.4188C26.1587 51.3405 30.2827 51.1169 30.2827 51.1169Z" stroke="black" stroke-width="4" stroke-miterlimit="10"/>
<path d="M53.4204 37.1715C53.4204 37.1715 54.3155 37.0358 54.4594 36.9C54.7231 36.6604 61.8842 13.6258 61.8842 13.6258C61.8842 13.6258 62.1 12.7792 63.147 12.7792C64.6176 12.7792 69.333 14.2408 69.333 14.2408C69.333 14.2408 69.7726 14.3926 70.0443 14.0651C70.0763 14.0252 70.5159 13.0588 70.4999 12.891" stroke="#2DCC8A" stroke-width="4" stroke-miterlimit="10"/>
<path d="M55.93 36.8201L53.7561 37.1156C53.7561 37.1156 34.6385 40.0868 24.6482 44.4078C16.7998 47.8023 11.3251 54.4075 10.8375 54.2079C8.95934 53.4331 19.3013 35.9655 32.4886 27.4753C41.408 21.7406 51.1506 16.581 58.0159 10.6227C63.2429 6.0861 69.5568 1.35778 69.9005 1.59739C71.2432 2.53188 70.4919 15.4229 70.4919 15.4229" stroke="black" stroke-width="4" stroke-miterlimit="10"/>
<path d="M54.3315 41.8519L63.0111 13.9134L70.332 15.6545" stroke="black" stroke-width="5" stroke-miterlimit="10"/>
<path d="M58.0319 41.3887L72.0903 12.2441L85.3176 18.474L76.8617 36.5406" stroke="black" stroke-width="5" stroke-miterlimit="10"/>
<path d="M74.2417 29.3352C73.9668 29.2162 73.6932 29.2131 73.4209 29.3257C73.1498 29.4353 72.839 29.6857 72.4885 30.0767C72.0185 30.6287 71.5647 30.9839 71.1271 31.142C70.6879 31.2959 70.2277 31.2687 69.7468 31.0605C69.2569 30.8483 68.9166 30.5325 68.7259 30.1129C68.5366 29.6904 68.5202 29.2168 68.6767 28.6921L67.6954 28.2672L67.9848 27.5997L68.9706 28.0265C69.2569 27.5545 69.6365 27.256 70.1094 27.1309C70.5836 27.0027 71.127 27.0713 71.7393 27.3365L71.3819 28.1608C70.9607 27.9784 70.5828 27.9336 70.2481 28.0263C69.9133 28.119 69.6722 28.3357 69.5245 28.6761C69.3704 29.0315 69.3452 29.3434 69.4488 29.6118C69.5495 29.8789 69.7641 30.0835 70.0927 30.2258C70.3974 30.3578 70.6836 30.3646 70.9513 30.2464C71.2173 30.1239 71.5234 29.868 71.8696 29.4787C72.2141 29.0852 72.531 28.8003 72.8203 28.624C73.108 28.4435 73.3957 28.3446 73.6835 28.3273C73.9725 28.307 74.2754 28.3654 74.5921 28.5026C75.0969 28.7212 75.4372 29.0494 75.6128 29.4873C75.7896 29.9222 75.788 30.4252 75.6078 30.9963L76.4636 31.3669L76.1761 32.03L75.3203 31.6594C75.0286 32.1929 74.6424 32.5436 74.1616 32.7114C73.6791 32.875 73.1421 32.8287 72.5506 32.5725L72.91 31.7437C73.3252 31.9236 73.6921 31.9529 74.0107 31.8319C74.3293 31.7109 74.5753 31.4503 74.7489 31.0501C74.9185 30.6588 74.9578 30.3105 74.8667 30.005C74.7756 29.6995 74.5673 29.4762 74.2417 29.3352Z" fill="white"/>
<path d="M78.5241 37.2674C84.6462 30.0392 92.1829 24.009 100.575 19.6081C101.846 18.9452 103.572 19.3286 104.435 20.4787C111.053 29.2564 112.22 41.812 107.336 51.668C102.453 61.516 95.4974 67.4361 84.5 67.5C81.5908 67.516 78.1598 63.9073 78 61" stroke="black" stroke-width="4" stroke-miterlimit="10"/>
<path d="M99.6237 20.1432C97.9853 21.7007 96.6746 23.346 95.252 25.1671C93.9972 26.8204 93.0301 28.3539 92.0071 30.119C89.05 35.4144 85.6852 41.1411 83.7511 46.7799C81.7051 52.5306 76.7498 57.0193 70.8595 58.5049" stroke="black" stroke-width="4" stroke-miterlimit="10"/>
<path d="M12 83.3726C26.0405 92.6539 38.9581 90.8345 39.6032 90.8906C41.5384 91.0589 62.8022 88.4621 71.9927 69.5548C73.7766 63.7199 72.6478 56.992 72.6478 57" stroke="black" stroke-width="4" stroke-miterlimit="10"/>
<path d="M17.3592 53.9523L16.6879 55.7893C14.1863 61.7156 9.78255 66.8193 4.28386 70.1739C4.29984 73.185 5.71448 76.1641 8.03224 78.089C10.35 80.0139 13.5389 80.8525 16.512 80.3254" stroke="black" stroke-width="4" stroke-miterlimit="10"/>
<path d="M86.2766 94.726L81.9768 86.8827H78.5641V94.726H73.9046V72.8416H84.1507C88.7143 72.8416 91.5036 75.8287 91.5036 79.8941C91.5036 83.7678 89.0739 85.8284 86.7082 86.3875L91.6315 94.718H86.2766V94.726ZM83.4554 76.851H78.5641V82.8892H83.4554C85.3256 82.8892 86.7402 81.7071 86.7402 79.8701C86.7322 78.0331 85.3256 76.851 83.4554 76.851Z" fill="black"/>
<path d="M105.378 72.4821C112.012 72.4821 116.831 77.2025 116.831 83.7997C116.831 90.397 112.004 95.1173 105.378 95.1173C98.7766 95.1173 93.9572 90.397 93.9572 83.7997C93.9572 77.2105 98.7846 72.4821 105.378 72.4821ZM105.378 76.6194C101.342 76.6194 98.7446 79.7024 98.7446 83.8077C98.7446 87.8731 101.334 90.996 105.378 90.996C109.414 90.996 112.044 87.8811 112.044 83.8077C112.044 79.7024 109.422 76.6194 105.378 76.6194Z" fill="black"/>
<path d="M120.124 94.726V72.8416H131.649C135.821 72.8416 137.955 75.5012 137.955 78.4165C137.955 81.172 136.244 83.009 134.182 83.4323C136.516 83.7917 138.386 86.0601 138.386 88.8156C138.386 92.0982 136.188 94.718 132.016 94.718H120.124V94.726ZM124.783 81.6353H130.626C132.2 81.6353 133.183 80.6209 133.183 79.2072C133.183 77.8654 132.2 76.8111 130.626 76.8111H124.783V81.6353ZM124.783 90.7564H130.794C132.568 90.7564 133.615 89.7421 133.615 88.1686C133.615 86.7869 132.632 85.6128 130.794 85.6128H124.783V90.7564Z" fill="black"/>
<path d="M141.887 99.0869V72.8495H146.546V99.0949H141.887V99.0869Z" fill="#2DCC8A"/>
<path d="M165.976 94.726L155.538 80.0299V94.726H150.878V72.8416H155.674L165.816 87.0105V72.8495H170.475V94.734H165.976V94.726Z" fill="black"/>
<path d="M107.736 119.102V103.352L101.566 119.102H99.5278L93.3578 103.352V119.102H88.6983V97.2179H95.228L100.543 110.868L105.858 97.2179H112.419V119.102H107.736Z" fill="black"/>
<path d="M127.141 96.8585C133.775 96.8585 138.594 101.579 138.594 108.176C138.594 114.773 133.767 119.494 127.141 119.494C120.54 119.494 115.72 114.773 115.72 108.176C115.72 101.587 120.54 96.8585 127.141 96.8585ZM127.141 100.996C123.105 100.996 120.508 104.079 120.508 108.184C120.508 112.249 123.097 115.372 127.141 115.372C131.177 115.372 133.807 112.257 133.807 108.184C133.807 104.079 131.177 100.996 127.141 100.996Z" fill="black"/>
<path d="M156.976 119.102L146.538 104.406V119.102H141.879V97.2179H146.538L156.816 111.387V97.2179H161.476V119.102H156.976Z" fill="#2DCC8A"/>
<path d="M165.808 119.102V97.2179H181.305V101.219H170.475V105.98H181.081V109.981H170.475V115.069H181.305V119.102H165.808Z" fill="black"/>
<path d="M191.055 119.102V110.149L182.616 97.2259H187.93L193.381 106.02L198.768 97.2259H204.083L195.715 110.149V119.102H191.055Z" fill="black"/>
</g>
<defs>
<clipPath id="clip0_55_364">
<rect width="207" height="123" fill="white"/>
</clipPath>
</defs>
</svg>
